<?xml version="1.0" standalone="no"?>
<!DOCTYPE svg PUBLIC "-//W3C//DTD SVG 20010904//EN"
 "http://www.w3.org/TR/2001/REC-SVG-20010904/DTD/svg10.dtd">
<svg version="1.0" xmlns="http://www.w3.org/2000/svg"
 width="1024.000000pt" height="1024.000000pt" viewBox="0 0 1024.000000 1024.000000"
 preserveAspectRatio="xMidYMid meet">

<g transform="translate(0.000000,1024.000000) scale(0.100000,-0.100000)"
fill="#000000" stroke="none">
<path d="M4914 8620 c-232 -60 -424 -258 -479 -493 -19 -80 -19 -254 0 -335
43 -183 190 -365 360 -447 104 -50 184 -68 300 -68 219 1 410 94 534 261 105
140 146 257 145 417 -1 121 -22 211 -71 313 -48 97 -195 250 -288 299 -140 73
-343 95 -501 53z m473 -236 c20 -20 24 -32 20 -58 -4 -28 0 -38 29 -65 44 -42
46 -81 5 -122 -37 -37 -74 -38 -98 -3 -10 14 -32 42 -49 62 -28 32 -37 36 -90
40 -49 3 -63 0 -87 -18 -32 -26 -53 -62 -62 -112 l-7 -36 67 -23 c76 -27 101
-53 86 -91 -19 -49 -36 -54 -109 -30 l-67 22 -15 -22 c-8 -12 -27 -37 -42 -54
-16 -17 -28 -36 -28 -42 0 -17 71 -74 118 -94 56 -25 111 -17 158 24 37 33 58
32 93 -6 35 -38 25 -73 -33 -118 -117 -87 -236 -73 -420 51 -68 46 -75 54 -66
72 9 17 5 28 -29 68 -44 52 -48 66 -29 106 9 19 17 25 32 22 89 -20 83 -21
100 11 16 30 15 30 -19 51 -39 23 -44 45 -20 91 13 25 19 28 49 23 l34 -5 21
64 c41 122 128 188 249 188 35 0 73 -5 84 -11 18 -10 24 -8 41 15 24 33 51 33
84 0z"/>
<path d="M3525 7263 c-216 -30 -407 -167 -500 -358 -167 -343 1 -766 354 -895
139 -51 298 -58 436 -19 123 34 276 152 353 272 102 157 127 373 66 557 -37
110 -78 176 -163 260 -147 145 -343 211 -546 183z m141 -233 c10 -30 18 -37
65 -51 79 -23 117 -46 139 -82 28 -45 25 -64 -12 -87 -45 -27 -69 -25 -113 10
-56 45 -71 40 -79 -22 -11 -98 -13 -94 63 -117 38 -12 84 -33 101 -47 124
-105 74 -312 -86 -353 -27 -7 -55 -15 -61 -17 -7 -2 -13 -13 -13 -24 0 -40
-19 -60 -55 -60 -33 0 -36 3 -47 44 -10 40 -16 45 -47 51 -55 10 -106 41 -145
86 -43 51 -45 80 -10 108 35 28 69 26 99 -3 36 -36 67 -56 88 -56 16 0 18 8
15 76 -2 57 -7 79 -18 84 -109 50 -137 69 -164 107 -34 49 -45 129 -27 186 21
64 112 127 184 127 10 0 17 8 17 18 0 35 30 63 63 60 27 -2 34 -9 43 -38z"/>
<path d="M3510 6830 c-27 -27 -25 -56 5 -85 37 -38 45 -32 45 40 0 72 -12 83
-50 45z"/>
<path d="M3665 6518 c-4 -19 -5 -52 -3 -73 3 -36 5 -40 28 -37 27 3 70 44 70
67 0 20 -41 62 -67 70 -19 5 -23 1 -28 -27z"/>
<path d="M6462 7259 c-144 -22 -269 -87 -371 -195 -78 -81 -120 -150 -153
-249 -30 -92 -32 -287 -4 -380 62 -205 208 -365 402 -438 52 -20 77 -22 224
-22 146 0 172 3 224 23 200 74 365 258 412 458 35 153 13 333 -59 469 -48 91
-173 212 -273 263 -125 64 -274 90 -402 71z m323 -273 c19 -8 40 -27 47 -41
10 -22 8 -30 -9 -53 -19 -25 -25 -27 -99 -28 -44 -1 -91 -6 -105 -12 -69 -28
-128 -111 -129 -179 l0 -32 128 -3 127 -3 3 -41 c5 -66 -10 -74 -134 -74 -72
0 -104 -4 -104 -12 0 -13 46 -75 75 -101 54 -49 134 -68 191 -47 34 13 71 -8
80 -47 14 -54 -81 -100 -188 -90 -122 11 -238 107 -293 243 l-24 59 -83 0
c-78 0 -83 1 -86 22 -3 23 23 83 42 95 6 4 37 8 69 8 l57 0 0 35 c0 77 64 197
135 251 77 58 222 82 300 50z"/>
<path d="M5002 6540 c-106 -23 -213 -114 -251 -213 -28 -77 -29 -186 -1 -261
53 -141 214 -237 373 -223 127 11 253 108 298 227 29 77 23 192 -13 272 -69
149 -240 233 -406 198z"/>
<path d="M3424 5470 c-182 -47 -322 -154 -408 -311 -70 -128 -66 -36 -66
-1541 0 -958 3 -1373 11 -1410 28 -135 133 -294 251 -383 78 -59 133 -87 228
-117 l75 -23 1500 0 c1680 0 1543 -6 1705 73 111 54 242 186 298 302 67 137
72 169 72 466 l0 262 33 21 c52 32 114 102 139 156 22 49 23 59 26 420 2 249
0 384 -8 415 -16 64 -63 130 -131 179 l-59 43 0 467 c0 516 0 516 -66 651 -54
110 -171 224 -287 279 -158 75 -53 71 -1735 70 -1439 0 -1510 -1 -1578 -19z
m3204 -304 c124 -57 172 -147 172 -322 l0 -105 -52 29 c-29 17 -82 41 -118 54
l-65 23 -1620 5 -1620 5 -36 23 c-42 26 -64 68 -55 109 20 89 153 190 270 203
33 4 736 7 1561 6 l1500 -1 63 -29z m-3328 -573 l65 -28 1580 0 1580 0 56 -23
c77 -31 143 -92 182 -166 l32 -61 3 -212 4 -212 -404 -3 c-394 -3 -404 -4
-460 -26 -131 -53 -241 -168 -279 -293 -18 -60 -20 -89 -17 -305 l3 -239 29
-58 c45 -93 133 -180 234 -229 l85 -43 186 -6 c102 -4 284 -8 404 -8 l218 -1
-3 -222 c-3 -217 -4 -225 -30 -280 -35 -76 -99 -143 -173 -181 l-60 -32 -1515
0 -1515 0 -57 27 c-105 49 -191 158 -224 283 -19 71 -21 2360 -1 2352 6 -3 41
-18 77 -34z m3740 -1205 c0 -139 -5 -269 -10 -289 -13 -46 -52 -86 -110 -112
-43 -20 -65 -21 -450 -21 l-405 -1 -48 24 c-26 12 -60 39 -75 59 -27 35 -27
36 -30 228 -4 227 3 253 85 301 l48 28 445 1 c385 0 450 3 480 16 74 34 70 47
70 -234z"/>
<path d="M6190 3431 c-102 -54 -97 -217 7 -266 51 -24 134 -17 169 16 77 72
70 188 -16 247 -41 28 -111 29 -160 3z"/>
</g>
</svg>
