<svg width="1426" height="2287" viewBox="0 0 1426 2287" fill="none" xmlns="http://www.w3.org/2000/svg">
<path d="M645.452 6.95251C569.209 26.6706 506.111 91.7403 488.036 168.969C481.792 195.26 481.792 252.443 488.036 279.062C502.168 339.202 550.477 399.014 606.345 425.962C640.523 442.394 666.814 448.309 704.935 448.309C776.906 447.98 839.676 417.417 880.426 362.535C914.933 316.527 928.407 278.076 928.078 225.495C927.75 185.73 920.848 156.153 904.745 122.632C888.971 90.7544 840.661 40.4733 810.098 24.3702C764.09 0.379811 697.377 -6.85016 645.452 6.95251ZM800.897 84.5103C807.469 91.083 808.784 95.0266 807.469 103.571C806.155 112.773 807.469 116.059 817 124.932C831.46 138.735 832.117 151.552 818.643 165.026C806.483 177.185 794.324 177.514 786.437 166.012C783.15 161.411 775.92 152.209 770.334 145.636C761.132 135.12 758.174 133.806 740.757 132.491C724.653 131.505 720.053 132.491 712.165 138.406C701.649 146.951 694.748 158.782 691.79 175.214L689.489 187.044L711.508 194.603C736.484 203.476 744.7 212.021 739.771 224.509C733.527 240.612 727.94 242.255 703.949 234.368L681.931 227.138L677.001 234.368C674.372 238.311 668.128 246.527 663.199 252.114C657.941 257.701 653.997 263.945 653.997 265.917C653.997 271.504 677.33 290.236 692.776 296.808C711.179 305.024 729.254 302.395 744.7 288.921C756.86 278.076 763.761 278.405 775.263 290.893C786.765 303.381 783.479 314.883 764.418 329.672C725.968 358.263 686.86 353.662 626.392 312.912C604.044 297.794 601.744 295.165 604.702 289.25C607.659 283.663 606.345 280.048 595.171 266.903C580.711 249.814 579.397 245.213 585.641 232.067C588.599 225.823 591.228 223.851 596.157 224.837C625.406 231.41 623.434 231.739 629.021 221.222C634.279 211.363 633.95 211.363 622.777 204.462C609.96 196.903 608.317 189.673 616.204 174.556C620.476 166.34 622.448 165.354 632.307 166.998L643.481 168.641L650.382 147.608C663.856 107.515 692.447 85.8249 732.212 85.8249C743.714 85.8249 756.202 87.468 759.817 89.4398C765.733 92.7262 767.705 92.0689 773.291 84.5103C781.179 73.6654 790.052 73.6654 800.897 84.5103Z" fill="white"/>
<path d="M188.98 452.91C117.994 462.769 55.2252 507.792 24.6622 570.561C-30.2199 683.283 24.9908 822.296 140.999 864.689C186.679 881.45 238.932 883.75 284.284 870.933C324.706 859.76 374.987 820.981 400.292 781.545C433.813 729.949 442.028 658.964 421.982 598.495C409.822 562.345 396.348 540.655 368.414 513.05C320.105 465.398 255.692 443.708 188.98 452.91ZM235.317 529.482C238.603 539.341 241.233 541.641 256.678 546.242C282.641 553.801 295.129 561.359 302.359 573.19C311.56 587.979 310.575 594.223 298.415 601.782C283.626 610.655 275.739 609.997 261.279 598.495C242.876 583.707 237.946 585.35 235.317 605.725C231.702 637.931 231.045 636.617 256.021 644.175C268.509 648.119 283.626 655.02 289.213 659.621C329.964 694.128 313.532 762.155 260.951 775.629C252.078 777.93 242.876 780.559 240.904 781.216C238.603 781.873 236.632 785.488 236.632 789.103C236.632 802.249 230.388 808.821 218.557 808.821C207.712 808.821 206.726 807.836 203.111 794.362C199.825 781.216 197.853 779.573 187.665 777.601C169.59 774.315 152.83 764.127 140.013 749.339C125.882 732.578 125.224 723.048 136.727 713.846C148.229 704.644 159.402 705.302 169.262 714.832C181.092 726.663 191.28 733.235 198.181 733.235C203.44 733.235 204.097 730.606 203.111 708.259C202.454 689.527 200.81 682.297 197.195 680.654C161.374 664.222 152.172 657.978 143.299 645.49C132.126 629.387 128.511 603.096 134.426 584.364C141.328 563.331 171.233 542.627 194.895 542.627C198.181 542.627 200.482 539.998 200.482 536.712C200.482 525.21 210.341 516.008 221.186 516.994C230.059 517.651 232.359 519.951 235.317 529.482Z" fill="white"/>
<path d="M184.049 595.209C175.176 604.083 175.833 613.613 185.692 623.143C197.852 635.631 200.481 633.66 200.481 609.998C200.481 586.336 196.537 582.721 184.049 595.209Z" fill="white"/>
<path d="M234.987 697.744C233.673 703.988 233.344 714.833 234.001 721.734C234.987 733.565 235.645 734.879 243.203 733.894C252.076 732.908 266.208 719.434 266.208 711.875C266.208 705.302 252.734 691.5 244.189 688.871C237.945 687.227 236.631 688.542 234.987 697.744Z" fill="white"/>
<path d="M1154.18 454.225C1106.86 461.455 1065.78 482.816 1032.26 518.309C1006.62 544.928 992.819 567.604 981.974 600.139C972.115 630.373 971.458 694.457 980.66 725.02C1001.04 792.39 1049.02 844.972 1112.77 868.962C1129.86 875.535 1138.08 876.192 1186.39 876.192C1234.37 876.192 1242.91 875.206 1260 868.633C1325.73 844.314 1379.95 783.846 1395.4 718.119C1406.9 667.837 1399.67 608.683 1376.01 563.989C1360.23 534.083 1319.15 494.318 1286.29 477.558C1245.21 456.525 1196.24 447.981 1154.18 454.225ZM1260.33 543.942C1266.57 546.571 1273.47 552.815 1275.77 557.416C1279.06 564.646 1278.4 567.275 1272.82 574.834C1266.57 583.05 1264.6 583.707 1240.28 584.036C1225.82 584.364 1210.38 586.007 1205.77 587.979C1183.1 597.181 1163.71 624.458 1163.38 646.805V657.321L1205.45 658.307L1247.18 659.293L1248.17 672.767C1249.81 694.457 1244.88 697.086 1204.13 697.086C1180.47 697.086 1169.95 698.4 1169.95 701.03C1169.95 705.302 1185.07 725.677 1194.6 734.222C1212.35 750.325 1238.64 756.569 1257.37 749.667C1268.54 745.395 1280.7 752.297 1283.66 765.113C1288.26 782.86 1257.04 797.977 1221.88 794.69C1181.78 791.075 1143.66 759.527 1125.59 714.832L1117.7 695.443H1090.42C1064.79 695.443 1063.15 695.114 1062.16 688.213C1061.18 680.654 1069.72 660.936 1075.96 656.992C1077.94 655.678 1088.12 654.363 1098.64 654.363H1117.37V642.861C1117.37 617.556 1138.4 578.12 1161.74 560.374C1187.04 541.313 1234.69 533.426 1260.33 543.942Z" fill="white"/>
<path d="M674.372 690.513C639.537 698.071 604.373 727.977 591.885 760.512C582.683 785.817 582.355 821.638 591.556 846.286C608.974 892.623 661.884 924.172 714.137 919.571C755.874 915.956 797.282 884.079 812.07 844.971C821.601 819.666 819.629 781.873 807.798 755.583C785.122 706.616 728.926 679.011 674.372 690.513Z" fill="white"/>
<path d="M155.787 1042.15C95.9752 1057.6 49.9663 1092.76 21.7037 1144.36C-1.30071 1186.42 0.0138282 1156.19 0.0138282 1650.78C0.0138282 1965.62 0.999733 2102 3.62881 2114.16C12.8306 2158.53 47.3372 2210.78 86.1162 2240.03C111.75 2259.42 129.825 2268.62 161.045 2278.48L185.692 2286.04H678.645C1230.75 2286.04 1185.73 2288.01 1238.97 2262.05C1275.45 2244.3 1318.5 2200.92 1336.9 2162.8C1358.92 2117.77 1360.56 2107.26 1360.56 2009.65V1923.55L1371.41 1916.65C1388.5 1906.13 1408.87 1883.13 1417.09 1865.38C1424.32 1849.28 1424.65 1845.99 1425.63 1727.36C1426.29 1645.53 1425.63 1601.16 1423 1590.97C1417.74 1569.94 1402.3 1548.25 1379.95 1532.15L1360.56 1518.02V1364.54C1360.56 1194.97 1360.56 1194.97 1338.87 1150.6C1321.13 1114.45 1282.68 1076.99 1244.55 1058.91C1192.63 1034.27 1227.14 1035.58 674.372 1035.91C201.467 1035.91 178.134 1036.24 155.787 1042.15ZM1208.73 1142.06C1249.48 1160.79 1265.26 1190.37 1265.26 1247.88V1282.38L1248.17 1272.85C1238.64 1267.27 1221.22 1259.38 1209.39 1255.11L1188.03 1247.55L655.64 1245.91L123.252 1244.26L111.421 1236.7C97.6184 1228.16 90.3884 1214.36 93.3461 1200.88C99.9188 1171.63 143.627 1138.44 182.078 1134.17C192.922 1132.86 423.953 1131.87 695.076 1132.2L1188.03 1132.53L1208.73 1142.06ZM115.036 1330.37L136.397 1339.57H655.64H1174.88L1193.29 1347.13C1218.59 1357.31 1240.28 1377.36 1253.1 1401.68L1263.61 1421.73L1264.6 1491.4L1265.92 1561.07L1133.15 1562.05C1003.66 1563.04 1000.38 1563.37 981.975 1570.6C938.924 1588.02 902.774 1625.81 890.286 1666.89C884.37 1686.61 883.713 1696.14 884.699 1767.12L885.685 1845.66L895.215 1864.73C910.004 1895.29 938.924 1923.88 972.116 1939.98L1000.05 1954.11L1061.18 1956.09C1094.7 1957.4 1154.51 1958.72 1193.94 1958.72L1265.59 1959.04L1264.6 2032C1263.61 2103.31 1263.29 2105.94 1254.74 2124.02C1243.24 2148.99 1222.21 2171.01 1197.89 2183.5L1178.17 2194.02H680.288H182.406L163.674 2185.14C129.167 2169.04 100.905 2133.22 90.0598 2092.14C83.8157 2068.81 83.1584 1316.56 89.7311 1319.19C91.7029 1320.18 103.205 1325.11 115.036 1330.37ZM1344.13 1726.37C1344.13 1772.05 1342.49 1814.77 1340.84 1821.35C1336.57 1836.46 1323.75 1849.61 1304.69 1858.15C1290.56 1864.73 1283.33 1865.05 1156.81 1865.05L1023.71 1865.38L1007.94 1857.5C999.392 1853.55 988.219 1844.68 983.289 1838.11C974.416 1826.6 974.416 1826.28 973.43 1763.18C972.116 1688.58 974.416 1680.03 1001.36 1664.26L1017.14 1655.06L1163.38 1654.73C1289.91 1654.73 1311.27 1653.74 1321.13 1649.47C1345.44 1638.3 1344.13 1634.02 1344.13 1726.37Z" fill="white"/>
<path d="M1064.79 1712.24C1031.27 1729.99 1032.91 1783.55 1067.09 1799.66C1083.85 1807.54 1111.13 1805.24 1122.63 1794.4C1147.94 1770.74 1145.63 1732.62 1117.37 1713.23C1103.9 1704.02 1080.89 1703.7 1064.79 1712.24Z" fill="white"/>
</svg>
