<svg width="750" height="750" viewBox="0 0 750 750" fill="none" xmlns="http://www.w3.org/2000/svg">
<circle cx="375" cy="375" r="375" fill="#D9D9D9"/>
<path d="M357.371 49.1148C337.38 54.2849 320.835 71.3465 316.096 91.5963C314.459 98.4899 314.459 113.483 316.096 120.463C319.801 136.232 332.468 151.915 347.117 158.981C356.079 163.289 362.972 164.84 372.968 164.84C391.839 164.754 408.297 156.74 418.982 142.35C428.03 130.286 431.563 120.205 431.477 106.417C431.391 95.9909 429.581 88.2357 425.359 79.4464C421.223 71.088 408.556 57.9041 400.542 53.6817C388.478 47.3914 370.986 45.4957 357.371 49.1148ZM398.129 69.4508C399.853 71.1741 400.197 72.2082 399.853 74.4486C399.508 76.8613 399.853 77.723 402.352 80.0496C406.143 83.6687 406.316 87.0293 402.783 90.5623C399.594 93.7505 396.406 93.8367 394.338 90.8208C393.476 89.6144 391.581 87.2017 390.116 85.4783C387.703 82.7209 386.927 82.3762 382.36 82.0315C378.138 81.773 376.932 82.0315 374.864 83.5825C372.106 85.823 370.297 88.9251 369.521 93.2335L368.918 96.3356L374.691 98.3175C381.24 100.644 383.394 102.885 382.102 106.159C380.465 110.381 379 110.812 372.709 108.744L366.936 106.848L365.644 108.744C364.954 109.778 363.317 111.932 362.024 113.397C360.646 114.862 359.612 116.499 359.612 117.016C359.612 118.481 365.73 123.393 369.78 125.116C374.605 127.27 379.344 126.581 383.394 123.048C386.583 120.205 388.392 120.291 391.408 123.565C394.424 126.84 393.562 129.856 388.565 133.733C378.483 141.23 368.229 140.024 352.373 129.339C346.514 125.375 345.911 124.685 346.686 123.134C347.462 121.669 347.117 120.722 344.187 117.275C340.396 112.794 340.051 111.588 341.688 108.141C342.464 106.504 343.153 105.987 344.446 106.245C352.115 107.968 351.598 108.055 353.063 105.297C354.441 102.712 354.355 102.712 351.426 100.903C348.065 98.9207 347.634 97.025 349.702 93.0612C350.822 90.9069 351.339 90.6484 353.924 91.0793L356.854 91.5101L358.664 85.9953C362.197 75.4826 369.693 69.7954 380.12 69.7954C383.136 69.7954 386.41 70.2263 387.358 70.7433C388.909 71.605 389.426 71.4327 390.891 69.4508C392.959 66.6072 395.286 66.6072 398.129 69.4508Z" fill="black"/>
<path d="M237.682 166.047C219.069 168.632 202.611 180.437 194.597 196.895C180.207 226.451 194.684 262.901 225.101 274.017C237.079 278.412 250.78 279.015 262.671 275.654C273.27 272.724 286.454 262.556 293.089 252.216C301.878 238.688 304.033 220.075 298.776 204.22C295.588 194.741 292.055 189.054 284.731 181.816C272.064 169.321 255.174 163.634 237.682 166.047ZM249.832 186.124C250.694 188.709 251.383 189.312 255.433 190.519C262.24 192.501 265.515 194.483 267.411 197.585C269.823 201.462 269.565 203.1 266.377 205.081C262.499 207.408 260.431 207.236 256.639 204.22C251.814 200.342 250.521 200.773 249.832 206.115C248.884 214.56 248.712 214.215 255.261 216.197C258.535 217.231 262.499 219.041 263.964 220.247C274.649 229.295 270.34 247.132 256.553 250.665C254.227 251.268 251.814 251.958 251.297 252.13C250.694 252.302 250.177 253.25 250.177 254.198C250.177 257.645 248.539 259.368 245.437 259.368C242.594 259.368 242.335 259.11 241.387 255.577C240.526 252.13 240.009 251.699 237.337 251.182C232.598 250.32 228.203 247.649 224.843 243.772C221.138 239.377 220.965 236.878 223.981 234.465C226.997 232.052 229.927 232.225 232.512 234.724C235.614 237.826 238.285 239.549 240.095 239.549C241.474 239.549 241.646 238.86 241.387 233C241.215 228.089 240.784 226.193 239.836 225.762C230.444 221.454 228.031 219.816 225.705 216.542C222.775 212.32 221.827 205.426 223.378 200.514C225.188 195 233.029 189.571 239.233 189.571C240.095 189.571 240.698 188.882 240.698 188.02C240.698 185.004 243.283 182.591 246.127 182.85C248.453 183.022 249.056 183.625 249.832 186.124Z" fill="black"/>
<path d="M236.389 203.358C234.063 205.685 234.235 208.184 236.82 210.683C240.008 213.957 240.698 213.44 240.698 207.236C240.698 201.032 239.664 200.084 236.389 203.358Z" fill="black"/>
<path d="M249.746 230.243C249.401 231.88 249.315 234.724 249.487 236.533C249.746 239.636 249.918 239.98 251.9 239.722C254.226 239.463 257.932 235.93 257.932 233.948C257.932 232.225 254.399 228.606 252.158 227.917C250.521 227.486 250.176 227.83 249.746 230.243Z" fill="black"/>
<path d="M490.761 166.391C478.353 168.287 467.582 173.888 458.793 183.194C452.071 190.174 448.452 196.12 445.609 204.651C443.024 212.578 442.851 229.381 445.264 237.395C450.606 255.06 463.187 268.847 479.904 275.137C484.385 276.861 486.539 277.033 499.206 277.033C511.787 277.033 514.027 276.774 518.508 275.051C535.742 268.675 549.96 252.819 554.01 235.585C557.026 222.402 555.13 206.891 548.926 195.172C544.79 187.331 534.019 176.904 525.402 172.509C514.63 166.995 501.791 164.754 490.761 166.391ZM518.594 189.916C520.231 190.605 522.041 192.242 522.644 193.449C523.506 195.344 523.334 196.034 521.869 198.016C520.231 200.17 519.714 200.342 513.338 200.428C509.546 200.514 505.496 200.945 504.29 201.462C498.344 203.875 493.26 211.027 493.174 216.887V219.644L504.204 219.903L515.147 220.161L515.406 223.694C515.837 229.381 514.544 230.071 503.859 230.071C497.655 230.071 494.898 230.415 494.898 231.105C494.898 232.225 498.861 237.567 501.36 239.808C506.013 244.03 512.907 245.667 517.819 243.858C520.748 242.738 523.937 244.547 524.712 247.908C525.919 252.561 517.732 256.525 508.512 255.663C498 254.715 488.004 246.443 483.265 234.724L481.197 229.64H474.045C467.323 229.64 466.893 229.554 466.634 227.744C466.376 225.762 468.616 220.592 470.253 219.558C470.77 219.213 473.441 218.869 476.199 218.869H481.11V215.853C481.11 209.218 486.625 198.877 492.743 194.224C499.378 189.226 511.873 187.158 518.594 189.916Z" fill="black"/>
<path d="M364.954 228.347C355.82 230.329 346.6 238.171 343.326 246.701C340.913 253.336 340.827 262.729 343.24 269.192C347.807 281.341 361.68 289.614 375.381 288.407C386.324 287.459 397.182 279.101 401.059 268.847C403.558 262.212 403.041 252.302 399.939 245.409C393.994 232.569 379.259 225.331 364.954 228.347Z" fill="black"/>
<path d="M228.979 320.549C213.296 324.599 201.232 333.819 193.822 347.347C187.79 358.377 188.134 350.449 188.134 480.134C188.134 562.685 188.393 598.445 189.082 601.633C191.495 613.266 200.543 626.967 210.711 634.636C217.432 639.72 222.171 642.133 230.358 644.718L236.82 646.7H366.074C510.839 646.7 499.034 647.217 512.993 640.41C522.558 635.756 533.846 624.382 538.672 614.386C544.445 602.581 544.876 599.824 544.876 574.231V551.655L547.72 549.846C552.2 547.088 557.543 541.056 559.697 536.403C561.593 532.181 561.679 531.319 561.938 500.212C562.11 478.756 561.938 467.123 561.248 464.452C559.869 458.937 555.82 453.25 549.96 449.027L544.876 445.322V405.081C544.876 360.617 544.876 360.617 539.189 348.985C534.536 339.506 524.454 329.683 514.458 324.943C500.843 318.481 509.891 318.825 364.954 318.911C240.956 318.911 234.838 318.998 228.979 320.549ZM505.066 346.744C515.751 351.656 519.887 359.411 519.887 374.491V383.538L515.406 381.04C512.907 379.575 508.34 377.507 505.238 376.386L499.637 374.405L360.043 373.974L220.448 373.543L217.346 371.561C213.727 369.321 211.831 365.701 212.607 362.168C214.33 354.499 225.791 345.796 235.872 344.676C238.716 344.331 299.293 344.073 370.383 344.159L499.637 344.245L505.066 346.744ZM218.294 396.119L223.895 398.532H360.043H496.19L501.016 400.514C507.651 403.185 513.338 408.441 516.699 414.818L519.456 420.074L519.715 438.342L520.059 456.61L485.247 456.869C451.296 457.127 450.434 457.213 445.609 459.109C434.321 463.676 424.842 473.586 421.568 484.357C420.016 489.527 419.844 492.026 420.103 510.638L420.361 531.233L422.86 536.231C426.738 544.245 434.321 551.741 443.024 555.964L450.348 559.669L466.376 560.186C475.165 560.531 490.848 560.875 501.188 560.875L519.973 560.961L519.715 580.091C519.456 598.79 519.37 599.479 517.129 604.218C514.114 610.767 508.599 616.541 502.222 619.815L497.052 622.573H366.505H235.959L231.047 620.246C221.999 616.024 214.589 606.631 211.745 595.86C210.108 589.742 209.935 392.5 211.659 393.189C212.176 393.448 215.192 394.741 218.294 396.119ZM540.568 499.953C540.568 511.931 540.137 523.133 539.706 524.856C538.586 528.82 535.225 532.267 530.227 534.507C526.522 536.231 524.626 536.317 491.451 536.317L456.552 536.403L452.416 534.335C450.176 533.301 447.246 530.974 445.953 529.251C443.627 526.235 443.627 526.149 443.368 509.604C443.024 490.044 443.627 487.804 450.693 483.667L454.829 481.255L493.174 481.168C526.35 481.168 531.951 480.91 534.536 479.79C540.912 476.86 540.568 475.74 540.568 499.953Z" fill="black"/>
<path d="M467.324 496.248C458.534 500.902 458.965 514.947 467.927 519.169C472.321 521.237 479.473 520.634 482.489 517.791C489.124 511.587 488.521 501.591 481.111 496.507C477.578 494.094 471.546 494.008 467.324 496.248Z" fill="black"/>
</svg>
